<svg version="1.1" viewBox="0 0 96 96" xmlns="http://www.w3.org/2000/svg" xmlns:xlink="http://www.w3.org/1999/xlink" id="Icons_HeadWithGears" overflow="hidden"><path d=" M 47.1 19.7 C 44.8 19.7 42.9 21.6 42.9 23.9 C 42.9 26.2 44.8 28.1 47.1 28.1 C 49.4 28.1 51.3 26.2 51.3 23.9 C 51.3 21.6 49.4 19.7 47.1 19.7 Z"/><circle cx="34.5" cy="44.2" r="4.2"/><path d=" M 59 25.3 L 56.5 26.5 C 56.3 27.3 55.9 28 55.5 28.7 L 56.4 31.3 L 54.4 33.3 L 51.8 32.4 C 51.1 32.8 50.4 33.1 49.6 33.3 L 48.4 35.7 L 45.6 35.7 L 44.4 33.2 C 43.6 33 42.9 32.7 42.2 32.3 L 39.6 33.2 L 37.6 31.2 L 38.5 28.6 C 38.1 27.9 37.8 27.2 37.6 26.4 L 35.1 25.2 L 35.1 22.4 L 37.6 21.2 C 37.8 20.4 38.1 19.7 38.5 19 L 37.7 16.4 L 39.7 14.4 L 42.3 15.3 C 43 14.9 43.7 14.6 44.5 14.4 L 45.7 11.9 L 48.5 11.9 L 49.7 14.3 C 50.5 14.5 51.2 14.8 51.9 15.2 L 54.5 14.3 L 56.5 16.3 L 55.6 18.9 C 56 19.6 56.3 20.3 56.5 21.1 L 59 22.3 L 59 25.3 Z M 46.4 45.6 L 43.9 46.8 C 43.7 47.6 43.4 48.3 43 49 L 43.8 51.6 L 41.8 53.6 L 39.2 52.7 C 38.5 53.1 37.8 53.4 37 53.6 L 35.9 56 L 33.1 56 L 31.9 53.5 C 31.1 53.3 30.4 53 29.7 52.6 L 27.1 53.4 L 25.1 51.4 L 26 48.8 C 25.6 48.1 25.3 47.4 25.1 46.6 L 22.6 45.4 L 22.6 42.6 L 25.1 41.4 C 25.3 40.6 25.6 39.9 26 39.2 L 25.1 36.6 L 27.1 34.6 L 29.7 35.5 C 30.4 35.1 31.1 34.8 31.9 34.6 L 33.1 32.1 L 36 32.1 L 37.2 34.6 C 38 34.8 38.7 35.1 39.4 35.5 L 42 34.6 L 44 36.6 L 43.1 39.2 C 43.5 39.9 43.8 40.6 44 41.4 L 46.5 42.6 L 46.4 45.6 L 46.4 45.6 Z M 81 49.3 L 74.1 37.3 L 74.1 36.8 C 74.5 25.8 68.9 15.5 59.4 9.8 C 49.9 4.2 38.2 4.2 28.7 9.8 C 19.2 15.4 13.6 25.8 14 36.8 C 14 46.3 18.3 55.2 25.8 61 L 25.8 86.3 L 57.4 86.3 L 57.4 74.3 L 62.3 74.3 C 65.5 74.3 68.5 73 70.7 70.8 C 72.9 68.5 74.1 65.5 74.1 62.3 L 74.1 56.3 L 78.5 56.3 C 81.1 56 83.4 53 81 49.3 Z"/></svg>